<?xml version="1.0" encoding="utf-8"?>
<!-- Generator: Adobe Illustrator 18.1.1, SVG Export Plug-In . SVG Version: 6.00 Build 0)  -->
<!DOCTYPE svg PUBLIC "-//W3C//DTD SVG 1.1//EN" "http://www.w3.org/Graphics/SVG/1.1/DTD/svg11.dtd">
<svg version="1.1" id="Layer_1" xmlns="http://www.w3.org/2000/svg" xmlns:xlink="http://www.w3.org/1999/xlink" x="0px" y="0px"
	 viewBox="175.4 336.7 119.6 119.6" enable-background="new 175.4 336.7 119.6 119.6" xml:space="preserve">
<g id="Collaborate">
	<g>
		<g>
			<g>
				<circle fill="#595671" cx="235.2" cy="396.5" r="59.8"/>
			</g>
		</g>
		<g>
			<g>
				<g>
					<path fill="#F0EEEE" d="M251.3,386.9c0-11.5-9.4-20.9-20.9-20.9c-11.5,0-20.9,9.4-20.9,20.9c0,0.8,0.1,1.7,0.2,2.4h-0.2v18.4
						h4.9v9.2c0,5.1,4.1,9.2,9.2,9.2h9.2v9.2h18.4v-27.6v-18.4H251C251.2,388.6,251.3,387.8,251.3,386.9z"/>
				</g>
				<g>
					<circle fill="#252C3D" cx="220.5" cy="391.1" r="2.9"/>
				</g>
			</g>
			<g>
				<circle fill="#252C3D" cx="245.2" cy="372.1" r="15.6"/>
			</g>
			<g>
				<path fill="#6FBEC4" d="M253.6,368.4c0-0.1,0-0.3,0-0.3c0-1.9-1.6-3.5-3.5-3.5c-0.6,0-1.2,0.2-1.7,0.4c-0.5-1.3-1.7-2.2-3.2-2.2
					c-1.4,0-2.6,0.9-3.1,2.1c-0.4-0.2-1-0.3-1.5-0.3c-1.9,0-3.5,1.6-3.5,3.5c0,0.1,0,0.2,0,0.2c-1.3,0.5-2.3,1.7-2.3,3.2
					c0,1.9,1.6,3.5,3.5,3.5h6.8h0.1h6.8c1.9,0,3.5-1.6,3.5-3.5C255.6,370.1,254.8,369,253.6,368.4z"/>
			</g>
		</g>
	</g>
	<g>
		<g>
			<polygon fill="#F0EEEE" points="245.1,368 245.1,374.9 248.6,374.9 			"/>
		</g>
		<g>
			<polygon fill="#F0EEEE" points="245.1,381.8 245.1,374.9 241.7,374.9 			"/>
		</g>
	</g>
	<g>
		<path fill="#F0B24E" d="M209.6,407.8L209.6,407.8L209.6,407.8z"/>
	</g>
	<g>
		<path fill="#F0B24E" d="M256.3,361.1L256.3,361.1L256.3,361.1z"/>
	</g>
	<g>
		<g>
			<polygon fill="#4C4969" points="209.6,407.8 214.5,412.7 214.5,407.8 			"/>
		</g>
		<g>
			<path fill="#4C4969" d="M267.9,372.7l-11.6-11.6c2.8,2.8,4.5,6.7,4.5,11c0,6.5-3.9,12-9.5,14.3c0,0.2,0,0.3,0,0.4
				c0,0.8-0.1,1.7-0.2,2.4h0.2v18.4v27.6h-14.1h-4.3v-4.3v-4.9H228h-4.3c-2.5,0-4.8-1-6.5-2.7l31.4,31.4c1-0.3,2-0.5,3.1-0.8
				c1.1-0.3,2.2-0.7,3.2-1c22.4-7.8,38.7-28.5,40-53.2L267.9,372.7z"/>
		</g>
	</g>
	<g>
		<path fill="#6FBEC4" d="M217.2,423.5L217.2,423.5L217.2,423.5z"/>
	</g>
	<g>
		<path fill="#6FBEC4" d="M217.2,423.5L217.2,423.5L217.2,423.5z"/>
	</g>
</g>
</svg>
