<?xml version="1.0" encoding="utf-8"?>
<!-- Generator: Adobe Illustrator 18.1.1, SVG Export Plug-In . SVG Version: 6.00 Build 0)  -->
<!DOCTYPE svg PUBLIC "-//W3C//DTD SVG 1.1//EN" "http://www.w3.org/Graphics/SVG/1.1/DTD/svg11.dtd">
<svg version="1.1" id="Layer_1" xmlns="http://www.w3.org/2000/svg" xmlns:xlink="http://www.w3.org/1999/xlink" x="0px" y="0px"
	 viewBox="463.4 336.7 119.6 119.6" enable-background="new 463.4 336.7 119.6 119.6" xml:space="preserve">
<g id="Succeed">
	<g>
		<g>
			<g>
				<circle fill="#595671" cx="523.2" cy="396.5" r="59.8"/>
			</g>
		</g>
		<g>
			<g>
				<path fill="#D8D8D9" d="M525.4,384c0.2-0.5,0.3-1.4,0.5-2.1l1-3.8l0.8-3.1l0,0l0.3-1.4c0.6-2.4-0.7-4.8-3-5.6
					c-0.1,0-0.2-0.1-0.3-0.1s-0.2,0-0.3-0.1c-2.4-0.5-4.7,1-5.3,3.3l-0.3,1.4l0,0l-0.8,3.1l-1.2,4.5l-0.7,2.7
					c-0.2,0.8-3.3,10.1-10.5,10.1h-1.7h-1.4v1.4v29.4v1.4h1.4h1.7h1.4h1.4h10.1h0.9h1.4h6.9v-9.2v-9.2v-9.2v-9.2H524l0.3-1.3
					L525.4,384z"/>
			</g>
			<g>
				<g>
					<path fill="#C3C3C6" d="M537,397.6h2.3c2.5,0,4.6-2.1,4.6-4.6h-20.7c0,2.5,2.1,4.6,4.6,4.6h2.3H537z"/>
				</g>
				<g>
					<path fill="#F0EEEE" d="M539.3,388.4H537h-6.9h-2.3c-2.5,0-4.6,2.1-4.6,4.6h20.7C543.9,390.5,541.8,388.4,539.3,388.4z"/>
				</g>
				<g>
					<path fill="#F0EEEE" d="M539.3,397.6H537h-6.9h-2.3c-2.5,0-4.6,2.1-4.6,4.6h20.7C543.9,399.7,541.8,397.6,539.3,397.6z"/>
				</g>
				<g>
					<path fill="#C3C3C6" d="M543.9,402.2h-20.7c0,2.5,2.1,4.6,4.6,4.6h2.3h6.9h2.3C541.8,406.8,543.9,404.7,543.9,402.2z"/>
				</g>
				<g>
					<path fill="#C3C3C6" d="M527.7,416h2.3h6.9h2.3c2.5,0,4.6-2.1,4.6-4.6h-20.7C523.2,413.9,525.2,416,527.7,416z"/>
				</g>
				<g>
					<path fill="#F0EEEE" d="M530.1,406.8h-2.3c-2.5,0-4.6,2.1-4.6,4.6h20.7c0-2.5-2.1-4.6-4.6-4.6H537H530.1z"/>
				</g>
				<g>
					<path fill="#C3C3C6" d="M527.7,425.2h9.2c2.5,0,4.6-2.1,4.6-4.6h-18.4C523.2,423.2,525.2,425.2,527.7,425.2z"/>
				</g>
				<g>
					<path fill="#F0EEEE" d="M527.7,416c-2.5,0-4.6,2.1-4.6,4.6h18.4c0-2.5-2.1-4.6-4.6-4.6H530H527.7z"/>
				</g>
			</g>
		</g>
	</g>
	<g>
		<g>
			<path fill="#4C4969" d="M544.9,387.3l-2.3-2.3l-15.5-15.5l0,0l0,0c0.9,1.1,1.3,2.6,0.9,4.1l-0.3,1.3v0.1l-0.8,3.1l-1,3.8
				c-0.2,0.7-0.4,1.6-0.5,2.1l-0.8,3.1l-0.3,1.3h3.6h2.3h6.9h2.3c1.3,0,2.4,0.5,3.2,1.3l0,0l0,0c0.9,0.9,1.3,2,1.3,3.2
				c0,2.5-2.1,4.6-4.6,4.6c2.5,0,4.6,2.1,4.6,4.6s-2.1,4.6-4.6,4.6c2.5,0,4.6,2.1,4.6,4.6s-2.1,4.6-4.6,4.6H537
				c2.5,0,4.6,2.1,4.6,4.6s-2.1,4.6-4.6,4.6h-9.2h-6.9h-1.4h-0.9h-10.1h-1.5h-1.4h-1.7h-1.4l2.3,2.3l28.1,28.1
				c19.1-3.1,35.1-15.2,43.6-31.9c0.5-1,1-2.2,1.6-3.3L544.9,387.3z"/>
		</g>
	</g>
</g>
</svg>
