<?xml version="1.0" encoding="utf-8"?>
<!-- Generator: Adobe Illustrator 18.1.1, SVG Export Plug-In . SVG Version: 6.00 Build 0)  -->
<!DOCTYPE svg PUBLIC "-//W3C//DTD SVG 1.1//EN" "http://www.w3.org/Graphics/SVG/1.1/DTD/svg11.dtd">
<svg version="1.1" id="Layer_1" xmlns="http://www.w3.org/2000/svg" xmlns:xlink="http://www.w3.org/1999/xlink" x="0px" y="0px"
	 viewBox="31.4 336.7 119.6 119.6" enable-background="new 31.4 336.7 119.6 119.6" xml:space="preserve">
<g id="Connect">
	<g>
		<g>
			<circle fill="#595671" cx="91.2" cy="396.5" r="59.8"/>
		</g>
	</g>
	<g>
		<path fill="#4C4969" d="M117.4,381.8L117.4,381.8L117.4,381.8L117.4,381.8c-0.9-0.9-2-1.4-3.2-1.4H95.7h-9.2
			c-2.5,0-4.6,2.1-4.6,4.6v4.6H68.2c-2.5,0-4.6,2.1-4.6,4.6v13.8c0,1.2,0.5,2.4,1.3,3.2l0,0l0,0l11.5,11.5l31.3,31.3
			c19.8-5.7,35.3-21.2,41-41L117.4,381.8z"/>
	</g>
	<g>
		<g>
			<g>
				<polygon fill="none" points="95.7,394.3 86.6,394.3 86.6,398.9 86.6,398.9 95.8,398.9 95.8,394.3 				"/>
			</g>
			<g>
				<path fill="none" d="M82,398.9v-4.6H68.2l0,0v13.8l0,0h27.6l0,0v-4.6h-9.3C84,403.4,82,401.4,82,398.9z"/>
			</g>
			<g>
				<path fill="none" d="M100.4,394.3v4.6h13.8l0,0v-13.8l0,0H86.6l0,0v4.6h9.2C98.3,389.7,100.4,391.7,100.4,394.3z"/>
			</g>
			<g>
				<path fill="#F0EEEE" d="M100.4,398.9v-4.6c0-2.5-2.1-4.6-4.6-4.6h-9.2h-4.6H68.2c-2.5,0-4.6,2.1-4.6,4.6v13.8
					c0,2.5,2.1,4.6,4.6,4.6h27.6c2.5,0,4.6-2.1,4.6-4.6v-4.6h-4.6v4.6l0,0H68.2l0,0v-13.8l0,0H82h4.5h9.2l0,0v4.6H100.4z"/>
			</g>
			<g>
				<path fill="#D8D8D9" d="M114.2,380.4H86.6c-2.5,0-4.6,2.1-4.6,4.6v4.6h4.6v-4.6l0,0h27.6l0,0v13.8l0,0h-13.8h-4.6h-9.2l0,0v-4.6
					h-4.6v4.6c0,2.5,2.1,4.6,4.6,4.6h9.2h4.6h13.8c2.5,0,4.6-2.1,4.6-4.6v-13.8C118.8,382.5,116.7,380.4,114.2,380.4z"/>
			</g>
		</g>
		<g>
			<rect x="82" y="394.3" fill="#C3C3C6" width="4.6" height="2.3"/>
		</g>
		<g opacity="0.3">
			<rect x="82" y="394.3" fill="#3C4351" width="4.6" height="1.1"/>
		</g>
		<g opacity="0.3">
			<rect x="95.8" y="403.5" fill="#3C4351" width="4.6" height="1.1"/>
		</g>
	</g>
	<g>
		<path fill="#F0B24E" d="M117.4,381.8L117.4,381.8L117.4,381.8z"/>
	</g>
	<g>
		<path fill="#F0B24E" d="M117.4,381.8L117.4,381.8L117.4,381.8z"/>
	</g>
	<g opacity="0.3">
		<path fill="#3C4351" d="M117.4,381.8L117.4,381.8L117.4,381.8z"/>
	</g>
	<g>
		<path fill="#F0B24E" d="M64.9,411.3L64.9,411.3L64.9,411.3z"/>
	</g>
	<g opacity="0.3">
		<path fill="#3C4351" d="M64.9,411.3L64.9,411.3L64.9,411.3z"/>
	</g>
	<g>
		<path fill="#F0B24E" d="M64.9,411.3L64.9,411.3L64.9,411.3z"/>
	</g>
	<g opacity="0.3">
		<path fill="#3C4351" d="M64.9,411.3L64.9,411.3L64.9,411.3z"/>
	</g>
</g>
</svg>
