<?xml version="1.0" encoding="utf-8"?>
<!-- Generator: Adobe Illustrator 18.1.1, SVG Export Plug-In . SVG Version: 6.00 Build 0)  -->
<!DOCTYPE svg PUBLIC "-//W3C//DTD SVG 1.1//EN" "http://www.w3.org/Graphics/SVG/1.1/DTD/svg11.dtd">
<svg version="1.1" id="Layer_1" xmlns="http://www.w3.org/2000/svg" xmlns:xlink="http://www.w3.org/1999/xlink" x="0px" y="0px"
	 viewBox="0 0 181.7 139" enable-background="new 0 0 181.7 139" xml:space="preserve">
<g>
	<path fill-rule="evenodd" clip-rule="evenodd" fill="#ED1C24" d="M33.1,43.7c15.2-1.1,2.8-8.7,7.1-10.8
		c15.8-7.5,43.4,11.8,57.5,13.8L84.6,34.5l-2.2-2.1c-15.6-5.7-34-12.5-42.6-8.5c-4.3,2.1,8.1,9.6-7.1,10.8
		c-1.3,0.1-18.5-2.8-32.7-8.2C0.1,39.9,20.2,44.7,33.1,43.7L33.1,43.7z"/>
	<path fill-rule="evenodd" clip-rule="evenodd" fill="#ED1C24" d="M33.3,59.3c15.2-1.1,2.8-8.7,7.1-10.8
		C62.3,38,100.4,77,103.6,52.3l0,0c-4.1,6.1-48.4-20.4-63.7-12.7c-4.3,2.1,8.1,9.6-7.1,10.8c-1.3,0.1-18.5-2.8-32.7-8.2
		C0.3,55.5,20.4,60.3,33.3,59.3L33.3,59.3z"/>
	<path fill-rule="evenodd" clip-rule="evenodd" fill="#ED1C24" d="M33.4,74.9c15.2-1.1,2.8-8.7,7.1-10.8c8-3.8,57.5,17.7,60.2,1.8
		c-11,5.9-46.2-17.6-60.6-10.7c-4.3,2.1,8.1,9.6-7.1,10.8c-1.3,0.1-18.5-2.8-32.7-8.2C0.5,71.1,20.5,75.9,33.4,74.9L33.4,74.9z"/>
	<path fill-rule="evenodd" clip-rule="evenodd" fill="#ED1C24" d="M41.3,86c-0.4-2.4-3-5.2-0.7-6.3c4.3-2.1,25.6,0.1,38.8-3
		c-9.8-2.6-31.6-9.6-39.2-5.9c-4.3,2.1,8.1,9.6-7.1,10.8c-1.3,0.1-18.5-2.8-32.7-8.2C0.7,92.7,41.3,87.4,41.3,86L41.3,86z"/>
	<path fill-rule="evenodd" clip-rule="evenodd" fill="#4F4B6A" d="M134.2,0l9.2,29.6l31.7,2.5l-26.5,20.8l4.3,31.1l-24.6-16.1
		c2.4-0.1,7.7-0.7,8.3-1c1.4-0.6,2.1-1,2-2.8c-0.1-0.8-1-1.5-1-2.9c0.1-1,0.7-1.1,0.8-2c0.1-0.5-2.5-0.4-3.1-0.3
		c0.5-0.2,3.2-0.5,3.1-1.1c-0.1-0.5-1.4-1.4-1.3-2.2c0.1-0.3,1.1-0.3,1.4-0.3c1.1,0,2.3-1.1,1.5-1.7c-1.3-1.2-2.3-2.4-3.6-3.6
		c-1.1-1-1.5,0.4-3.6,0.1c-0.7,0.4-1.7,0.9-2.9,0.9c-0.8,0.1-1.8-0.1-2.9-0.3l0,0c1.6,1.5,3,3.3,3.6,3.8c0.5,0.5,0.3,1.2-0.1,1.4
		c-0.7,0.5-1.8,0.1-2.1,0.5c-0.3,0.6,0.8,1.6,0.7,2.3c0,0.1-1.9,0.4-1.9,0.5c0,0.1,1.7,0,1.8,0.1c0.4,0.4-0.4,1.6-0.4,2.4
		c0,0.7,0.7,0.9,0.8,2.5c0.1,1.6-1.9,2.6-2.3,2.9L98.3,84L109,52.9l-1.3-1.2h0l0,0l-0.6-0.5l0.1,0l13-2.3l0.1,0l0,0l0,0l0,0h0l0,0h0
		l0.1,0h0l0,0l0.1,0l0,0l0,0l0.1,0h0l0.1,0l0,0l0,0c0.1,0,0.1,0,0.2,0l0,0l0.1,0l0,0l0.1,0l0.1,0l0,0l0.1,0l0,0l0.1,0l0,0l0,0l0.1,0
		l0,0l0.1,0l0,0l0.1,0l0.1,0l0.1,0l0,0l0.1,0l0,0l0.1,0l0,0l0.1,0l0.1,0l0,0l0.1,0l0,0l0.1,0l0,0l0.1,0l0.1,0l0,0l0.1,0l0,0l0.1,0
		l0,0l0.1,0l0.1,0l0,0l0.1,0l0,0l0.1,0l0,0l0.1,0l0.1,0l0,0l0.1,0l0,0l0.1,0l0,0l0.1,0l0.1,0l0,0l0.1,0l0,0l0.1,0l0,0l0.1,0l0.1,0
		l0,0l0.1,0l0,0l0.1,0l0,0l0.1,0l0.1,0l0,0l0.1,0l0,0l0.1,0l0,0l0.1,0l0.1,0l0,0l0.1,0l0,0l0.1,0l0,0l0.1,0l0.1,0l0,0l0.1,0l0,0
		l0.1,0l0.1,0l0.1,0h0l0.1,0l0.1,0c0.9,0.2,1.8,0.3,2.5,0.3c1-0.1,1.8-0.3,2.5-0.6l0,0l0,0l0,0l0,0l0,0l0,0h0l0,0l0,0l0,0l0,0l0,0
		l0,0l0,0h0l0,0l0,0l0,0l0,0l0,0l0,0l0,0l0,0l0,0l0,0l0,0l0,0l0,0l0,0l0,0h0l0,0l0,0l0,0l0,0l0,0l0,0l0,0l0,0l0,0l0,0l0,0l0,0l0,0
		l0,0l0,0l0,0l0,0l0,0c0,0,0,0,0.1-0.1h0l0,0l0,0l0,0l0,0l0,0l0,0l0,0c0,0,0,0,0-0.1l0,0l0,0l0,0l0,0v0l0,0l0,0l0,0l0,0v0l0,0v0l0,0
		l0,0l0,0l0,0l0,0l0,0l0,0l0,0l0,0l0,0l0,0l0,0l0,0l0,0l0,0l0,0l0,0l0,0l0,0l0,0l0,0l0,0l0,0l0,0l0,0l0,0l0,0l0,0l0,0l0,0l0,0l0,0
		l0,0l0,0l0,0l0,0l0,0l0,0l0,0l0,0l0,0l0,0l0,0l0,0l0,0l0,0l0,0l0,0l0,0l0,0l0,0l0,0l0,0l0,0l0,0l0,0l0,0l0,0l0,0l0,0l0,0l0,0l0,0
		l0,0l0,0l0,0l0,0l0,0l0,0l0,0l0,0l0,0l0,0l0,0l0,0l0,0l0,0l0,0l0,0l0,0l0,0l0,0l0,0l0,0l0,0l0,0h0l0,0l0,0l0,0l0,0l0,0l0,0l0,0l0,0
		l0,0l0,0l0,0l0,0l0,0l0,0l0,0l0,0l0,0l0,0l0,0c-1-0.5-1.8-1-2.8-1.5l0-3.2c0.3,0,0.5-0.1,0.8-0.1l-0.1,3.2c1.1,0.6,2.2,1.2,3.6,2
		c1.5,0.4,3,0.6,4.2,0.5c3.3-0.2,5.8-2,4.8-2.5c-3.1-1.4-4.6-2.3-6.7-3.4l0-4.8c-1.6,0.1-3.2,0.3-4.8,0.6l0.1,0
		c0,0.2-0.2,0.9-0.3,1.2l-0.9,2.6c-6.1,0.8-10.6,1.8-14.6,2.9c-3,0.7-5.9,1.5-8.6,2.2c6.7-2.2,15.2-4.6,22.4-5.6
		c0.4-1.1,0.8-2.1,1.2-3.2l-0.3,0l-0.2,0c-6.4,1-13.6,2.1-20.1,4c8.3-2.6,17.8-5.1,26.1-6.2l1.4-5.1c0.5-1.7,0.2-2.6-1.3-2.4
		c-13.9,1.8-25.5,6.6-37.6,12.3l-10.2-9.5l32.2-2.5L134.2,0L134.2,0z M103.7,44.4l-0.4,0.1l1.2-0.4C104.2,44.2,104,44.3,103.7,44.4
		L103.7,44.4z"/>
	<path fill-rule="evenodd" clip-rule="evenodd" fill="#4F4B6A" d="M10.1,127.7c0,1.1,0,2.2,0.1,3.1c0,1,0.1,1.8,0.2,2.6
		c0.1,0.8,0.2,1.6,0.4,2.4c0.2,0.8,0.4,1.6,0.6,2.4l0,0.2h-0.2H7.6H3.9H3.7l0-0.2c0.2-0.8,0.4-1.6,0.6-2.4c0.2-0.8,0.3-1.6,0.4-2.3
		c0.1-0.8,0.2-1.7,0.2-2.6c0-1,0.1-2,0.1-3.2v-20.5c-0.4-0.5-0.8-1-1.1-1.4c-0.4-0.4-0.7-0.8-1-1.2l0,0c-0.6-0.8-1.2-1.4-1.6-1.8
		c-0.4-0.4-0.7-0.7-0.9-0.8L0,101.7h0.5h4.3h4.3h0.1l0,0.1c0.5,0.9,1,1.8,1.5,2.6c0.5,0.8,1,1.6,1.4,2.3v0c0.5,0.7,1,1.4,1.5,2.2
		c0.6,0.8,1.2,1.6,1.8,2.5L29.2,129v-16.6c0-1.1,0-2.2-0.1-3.1c0-1-0.1-1.8-0.2-2.6c-0.1-0.8-0.2-1.6-0.4-2.4
		c-0.2-0.8-0.4-1.6-0.6-2.4l0-0.2H28h3.7h3.7h0.2l0,0.2c-0.2,0.8-0.4,1.6-0.6,2.4c-0.2,0.8-0.3,1.6-0.4,2.3
		c-0.1,0.8-0.2,1.6-0.2,2.6c0,1-0.1,2-0.1,3.2v17.1c0,0.9,0,1.8,0.1,2.6c0.1,0.9,0.1,1.7,0.3,2.6c0.1,0.8,0.2,1.6,0.4,2.1
		c0.1,0.6,0.3,1,0.5,1.4l0.1,0.2h-0.2h-3.7H28h-0.1l0-0.1c0-0.3-0.2-0.6-0.4-1.1c-0.2-0.5-0.5-1-0.9-1.7l0,0c-0.4-0.7-0.8-1.3-1.3-2
		c-0.5-0.7-1-1.4-1.5-2.1l0,0l-13.5-17.7V127.7L10.1,127.7z M46.3,127.7l12.5-26.6l0-0.1h0.1h0h0.1l0,0.1l12.5,26.6
		c0.7,1.5,1.4,2.9,2,4c0.6,1.2,1.1,2.1,1.6,2.9h0c0.5,0.8,0.9,1.5,1.4,2.1c0.4,0.6,0.9,1.1,1.3,1.6l0.2,0.2h-0.3h-4.5h-4.5h-0.2
		l0-0.2c0.1-0.4,0.1-0.8,0.1-1.4c0-0.6-0.2-1.2-0.3-2v0c-0.2-0.8-0.4-1.6-0.7-2.4c-0.3-0.8-0.6-1.7-1-2.6v0l-1.2-2.7H52l-0.1,0.4
		l0,0l0,0c-0.5,1.1-0.9,2.1-1.2,3.2c-0.4,1.1-0.7,2.1-0.9,3.1h0c-0.2,1-0.4,1.9-0.5,2.6c-0.1,0.7-0.1,1.3,0.1,1.7l0,0.2h-0.2h-4.5
		H40h-0.3l0.2-0.2c0.5-0.5,1-1.1,1.5-1.7c0.5-0.6,1-1.3,1.4-2.1c0.5-0.8,1-1.7,1.6-2.8C44.9,130.5,45.6,129.2,46.3,127.7L46.3,127.7
		z M58.6,111.7l-4.6,10.6h9.1L58.6,111.7L58.6,111.7z M80.9,112.5c-0.4-1.1-0.9-2.2-1.3-3.2c-0.4-1-0.9-1.8-1.3-2.6l0,0
		c-0.4-0.8-0.9-1.6-1.5-2.4c-0.6-0.8-1.2-1.6-1.8-2.4l-0.2-0.2h0.3h5.2h5.2h0.2l-0.1,0.2c-0.2,0.4-0.2,1-0.3,1.6
		c0,0.6,0,1.3,0.1,2.1v0c0.1,0.8,0.2,1.5,0.4,2.3c0.2,0.8,0.4,1.6,0.7,2.4l0,0l6.4,18.4l7-18.4l0,0c0.3-0.7,0.6-1.5,0.8-2.3
		c0.2-0.8,0.4-1.6,0.5-2.4v0c0.1-0.8,0.2-1.5,0.2-2.1c0-0.6-0.1-1.1-0.2-1.5l-0.1-0.2h0.2h4.6h4.6h0.3l-0.2,0.2
		c-0.4,0.4-0.7,0.9-1.1,1.5c-0.4,0.6-0.8,1.3-1.2,2c-0.4,0.8-0.9,1.7-1.4,2.9c-0.5,1.2-1.1,2.5-1.8,4.1l-10.3,25.9l0,0.1h-0.1h-4.4
		h-0.1l0-0.1L80.9,112.5L80.9,112.5L80.9,112.5z M132.3,109.1c-0.5-0.6-1.1-1.1-1.6-1.5c-0.5-0.4-1.1-0.8-1.6-1l0,0
		c-0.5-0.3-1.1-0.5-1.7-0.6c-0.6-0.1-1.2-0.2-1.8-0.2c-1.5,0-2.7,0.4-3.7,1.3c-0.5,0.4-0.8,1-1.1,1.5c-0.2,0.6-0.4,1.2-0.4,1.8
		c0,0.6,0.1,1.1,0.3,1.6c0.2,0.5,0.5,1,0.8,1.5l0,0c0.4,0.5,0.9,1,1.6,1.5c0.7,0.5,1.5,1.1,2.5,1.8l0,0c1.5,1,2.8,1.9,3.9,2.8
		c1.1,0.9,1.9,1.8,2.5,2.6h0c0.6,0.8,1.1,1.8,1.4,2.8c0.3,1,0.5,2,0.5,3.2c0,1.5-0.3,2.9-0.8,4.2c-0.5,1.3-1.4,2.4-2.4,3.4l0,0
		c-2.2,2-4.9,3-8.2,3c-0.8,0-1.6,0-2.3-0.1c-0.7-0.1-1.3-0.1-1.9-0.3v0c-0.6-0.1-1.2-0.3-1.9-0.5c-0.7-0.2-1.4-0.5-2.2-0.8l-0.1,0
		v-0.1v-6.8V130l0.2,0.3c0.6,0.7,1.1,1.3,1.7,1.8c0.6,0.5,1.2,0.9,1.7,1.2c0.6,0.3,1.2,0.6,1.8,0.7c0.6,0.2,1.3,0.2,2,0.2
		c1.8,0,3.2-0.5,4.4-1.5h0c0.6-0.5,1-1.1,1.3-1.7c0.3-0.6,0.4-1.3,0.4-2.1c0-0.7-0.1-1.3-0.3-1.9c-0.2-0.6-0.5-1.1-0.9-1.6l0,0
		c-0.4-0.5-0.9-1-1.6-1.6c-0.7-0.6-1.6-1.2-2.6-1.8c-1.5-0.9-2.7-1.8-3.8-2.7c-1-0.9-1.9-1.7-2.5-2.5h0c-0.6-0.8-1.1-1.7-1.4-2.6
		c-0.3-0.9-0.5-1.9-0.5-3c0-1.4,0.3-2.8,0.8-4c0.6-1.2,1.4-2.3,2.5-3.2l0,0c1.1-1,2.3-1.7,3.7-2.2c1.4-0.5,2.9-0.7,4.5-0.7
		c0.7,0,1.3,0,1.9,0.1c0.6,0.1,1.2,0.1,1.7,0.3c0.5,0.1,1,0.3,1.5,0.5c0.5,0.2,1,0.4,1.4,0.7l0.1,0v0.1v6.3v0.3L132.3,109.1
		L132.3,109.1z M155.8,139c-2.6,0-5-0.5-7.1-1.4c-2.2-0.9-4.1-2.3-5.8-4.1c-1.7-1.8-3-3.9-3.9-6.2c-0.9-2.3-1.3-4.8-1.3-7.6
		c0-2.7,0.5-5.1,1.4-7.3c0.9-2.2,2.3-4.2,4.1-6c1.8-1.8,3.9-3.1,6.2-4c2.3-0.9,4.8-1.3,7.6-1.3c2.6,0,5,0.5,7.1,1.4
		c2.2,0.9,4.1,2.3,5.8,4.1c1.7,1.8,3,3.9,3.9,6.2c0.9,2.3,1.3,4.8,1.3,7.6c0,2.7-0.5,5.1-1.4,7.3c-0.9,2.2-2.3,4.2-4.1,6
		c-1.8,1.8-3.9,3.1-6.2,4C161.1,138.6,158.6,139,155.8,139L155.8,139z M157,134.3c1.7,0,3.3-0.3,4.7-0.9c1.4-0.6,2.7-1.5,3.8-2.8
		c1.1-1.2,2-2.6,2.5-4.2c0.6-1.6,0.8-3.3,0.8-5.1c0-2.2-0.3-4.2-0.9-6.1c-0.6-1.8-1.5-3.5-2.8-5l0,0c-1.2-1.5-2.6-2.6-4.2-3.3
		c-1.5-0.7-3.3-1.1-5.1-1.1c-1.7,0-3.2,0.3-4.6,0.9c-1.4,0.6-2.7,1.5-3.8,2.8c-1.1,1.2-2,2.6-2.5,4.2c-0.6,1.6-0.8,3.3-0.8,5.1
		c0,2.2,0.3,4.2,0.9,6.1c0.6,1.8,1.5,3.5,2.8,4.9h0c1.2,1.5,2.6,2.6,4.2,3.3C153.4,134,155.1,134.3,157,134.3L157,134.3z"/>
</g>
<g>
	<path fill="#4F4B6A" d="M177.7,104.2h-0.9v4.6H176v-4.6h-0.9v-0.7h2.6V104.2z"/>
	<path fill="#4F4B6A" d="M178.8,104.6v4.1h-0.8v-5.2h1l0.7,4l0.7-4h1v5.2h-0.8v-4.1l-0.8,4.1h-0.6L178.8,104.6z"/>
</g>
</svg>
