<?xml version="1.0" encoding="utf-8"?>
<!-- Generator: Adobe Illustrator 18.1.1, SVG Export Plug-In . SVG Version: 6.00 Build 0)  -->
<!DOCTYPE svg PUBLIC "-//W3C//DTD SVG 1.1//EN" "http://www.w3.org/Graphics/SVG/1.1/DTD/svg11.dtd">
<svg version="1.1" id="Layer_1" xmlns="http://www.w3.org/2000/svg" xmlns:xlink="http://www.w3.org/1999/xlink" x="0px" y="0px"
	 viewBox="0 0 700 400" enable-background="new 0 0 700 400" xml:space="preserve">
<g id="Learn">
	<g>
		<g>
			<circle fill="#595671" cx="433.8" cy="200.6" r="68.4"/>
		</g>
	</g>
	<g>
		<g>
			<g>
				<rect x="414.2" y="212.4" fill="#252C3D" width="39.5" height="4.9"/>
			</g>
			<g>
				<rect x="414.2" y="197.1" fill="#2F4350" width="39.5" height="15.3"/>
			</g>
			<g>
				<ellipse fill="#252C3D" cx="433.9" cy="217.4" rx="19.8" ry="7.1"/>
			</g>
			<g>
				<ellipse fill="#2F4350" cx="433.9" cy="212.4" rx="19.8" ry="7.1"/>
			</g>
		</g>
		<g>
			<polygon fill="#252C3D" points="387.8,194.8 433.9,211.3 480,194.8 433.9,178.4 			"/>
		</g>
		<g>
			<polygon fill="#EB3439" points="455.4,203.7 455.4,224.4 457,222.2 458.6,223.3 458.6,202.5 			"/>
		</g>
		<g>
			<polygon fill="#EB3439" points="455.4,203.7 432.2,195.4 435.5,194.2 458.6,202.5 			"/>
		</g>
		<g>
			<ellipse fill="#2F4350" cx="433.9" cy="194.8" rx="1.6" ry="0.6"/>
		</g>
	</g>
	<g>
		<path fill="none" d="M500.4,215.2c-5.1,22.8-21.4,41.3-42.8,49.4l12.7,12.7c20.3-9.6,36.3-26.9,44.1-48.1L500.4,215.2z"/>
		<path fill="#4C4969" d="M500.4,215.2L480,194.8l-21.4,7.6v20.8l-1.6-1.1l-1.6,2.2v-20.8l-1.7,0.6v8.2v4.9c0,3.9-8.8,7.1-19.8,7.1
			c-10.9,0-19.8-3.2-19.8-7.1v-4.9v-8.2l-26.3-9.4l69.8,69.8C479,256.5,495.4,238,500.4,215.2z"/>
	</g>
</g>
<g id="Connect">
	<g>
		<g>
			<circle fill="#595671" cx="104.3" cy="200.6" r="68.4"/>
		</g>
	</g>
	<g>
		<path fill="#4C4969" d="M134.3,183.8L134.3,183.8C134.3,183.8,134.3,183.8,134.3,183.8L134.3,183.8c-1-1-2.3-1.6-3.7-1.6h-21.1H99
			c-2.9,0-5.3,2.4-5.3,5.3v5.3H78c-2.9,0-5.3,2.4-5.3,5.3v15.8c0,1.4,0.6,2.8,1.5,3.7l0,0l0,0l13.2,13.2l35.8,35.8
			c22.6-6.5,40.4-24.3,46.9-46.9L134.3,183.8z"/>
	</g>
	<g>
		<g>
			<g>
				<polygon fill="none" points="109.5,198 99,198 99,203.3 99,203.3 109.6,203.3 109.6,198 				"/>
			</g>
			<g>
				<path fill="none" d="M93.8,203.3V198H78c0,0,0,0,0,0v15.8c0,0,0,0,0,0h31.6c0,0,0,0,0,0v-5.3H99
					C96.1,208.5,93.8,206.2,93.8,203.3z"/>
			</g>
			<g>
				<path fill="none" d="M114.8,198v5.3h15.8c0,0,0,0,0,0v-15.8c0,0,0,0,0,0H99c0,0,0,0,0,0v5.3h10.5
					C112.4,192.8,114.8,195.1,114.8,198z"/>
			</g>
			<g>
				<path fill="#F0EEEE" d="M114.8,203.3V198c0-2.9-2.4-5.3-5.3-5.3H99h-5.3H78c-2.9,0-5.3,2.4-5.3,5.3v15.8c0,2.9,2.4,5.3,5.3,5.3
					h31.6c2.9,0,5.3-2.4,5.3-5.3v-5.3h-5.3v5.3c0,0,0,0,0,0H78c0,0,0,0,0,0V198c0,0,0,0,0,0h15.8H99h10.5c0,0,0,0,0,0v5.3H114.8z"/>
			</g>
			<g>
				<path fill="#D8D8D9" d="M130.6,182.2H99c-2.9,0-5.3,2.4-5.3,5.3v5.3H99v-5.3c0,0,0,0,0,0h31.6c0,0,0,0,0,0v15.8c0,0,0,0,0,0
					h-15.8h-5.3H99c0,0,0,0,0,0V198h-5.3v5.3c0,2.9,2.4,5.3,5.3,5.3h10.5h5.3h15.8c2.9,0,5.3-2.4,5.3-5.3v-15.8
					C135.9,184.6,133.5,182.2,130.6,182.2z"/>
			</g>
		</g>
		<g>
			<rect x="93.8" y="198" fill="#C3C3C6" width="5.3" height="2.6"/>
		</g>
		<g opacity="0.3">
			<rect x="93.8" y="198" fill="#3C4351" width="5.3" height="1.3"/>
		</g>
		<g opacity="0.3">
			<rect x="109.6" y="208.6" fill="#3C4351" width="5.3" height="1.3"/>
		</g>
	</g>
	<g>
		<polygon fill="#F0B24E" points="134.3,183.8 134.3,183.8 134.3,183.8 		"/>
	</g>
	<g>
		<path fill="#F0B24E" d="M134.3,183.8L134.3,183.8C134.3,183.8,134.3,183.8,134.3,183.8z"/>
	</g>
	<g opacity="0.3">
		<path fill="#3C4351" d="M134.3,183.8L134.3,183.8C134.3,183.8,134.3,183.8,134.3,183.8z"/>
	</g>
	<g>
		<polygon fill="#F0B24E" points="74.2,217.5 74.2,217.5 74.2,217.5 		"/>
	</g>
	<g opacity="0.3">
		<polygon fill="#3C4351" points="74.2,217.5 74.2,217.5 74.2,217.5 		"/>
	</g>
	<g>
		<polygon fill="#F0B24E" points="74.2,217.5 74.2,217.5 74.2,217.5 		"/>
	</g>
	<g opacity="0.3">
		<polygon fill="#3C4351" points="74.2,217.5 74.2,217.5 74.2,217.5 		"/>
	</g>
</g>
<g id="Collaborate">
	<g>
		<g>
			<g>
				<circle fill="#595671" cx="269" cy="200.6" r="68.4"/>
			</g>
		</g>
		<g>
			<g>
				<g>
					<path fill="#F0EEEE" d="M287.4,189.6c0-13.2-10.7-23.9-23.9-23.9c-13.2,0-23.9,10.7-23.9,23.9c0,0.9,0.1,1.9,0.2,2.8h-0.2v21.1
						h5.6V224c0,5.8,4.7,10.5,10.5,10.5h10.5v10.5h21.1v-31.6v-21.1h-0.2C287.3,191.5,287.4,190.6,287.4,189.6z"/>
				</g>
				<g>
					<circle fill="#252C3D" cx="252.2" cy="194.4" r="3.3"/>
				</g>
			</g>
			<g>
				<circle fill="#252C3D" cx="280.5" cy="172.7" r="17.8"/>
			</g>
			<g>
				<path fill="#6FBEC4" d="M290.1,168.4c0-0.1,0-0.3,0-0.4c0-2.2-1.8-4-4-4c-0.7,0-1.4,0.2-2,0.5c-0.6-1.5-2-2.5-3.7-2.5
					c-1.6,0-3,1-3.6,2.4c-0.5-0.2-1.1-0.4-1.7-0.4c-2.2,0-4,1.8-4,4c0,0.1,0,0.2,0,0.2c-1.5,0.6-2.6,2-2.6,3.7c0,2.2,1.8,4,4,4h7.8
					h0.1h7.8c2.2,0,4-1.8,4-4C292.3,170.4,291.4,169.1,290.1,168.4z"/>
			</g>
		</g>
	</g>
	<g>
		<g>
			<polygon fill="#F0EEEE" points="280.4,168 280.4,175.9 284.4,175.9 			"/>
		</g>
		<g>
			<polygon fill="#F0EEEE" points="280.4,183.8 280.4,175.9 276.5,175.9 			"/>
		</g>
	</g>
	<g>
		<polygon fill="#F0B24E" points="239.7,213.5 239.7,213.5 239.7,213.5 		"/>
	</g>
	<g>
		<polygon fill="#F0B24E" points="293.1,160.1 293.1,160.1 293.1,160.1 		"/>
	</g>
	<g>
		<g>
			<polygon fill="#4C4969" points="239.7,213.5 245.3,219.1 245.3,213.5 239.7,213.5 			"/>
		</g>
		<g>
			<path fill="#4C4969" d="M306.4,173.4l-13.3-13.3c3.2,3.2,5.2,7.7,5.2,12.6c0,7.4-4.5,13.7-10.9,16.4c0,0.2,0,0.3,0,0.5
				c0,0.9-0.1,1.9-0.2,2.8h0.2v21.1v31.6h-16.1h-4.9v-4.9v-5.6h-5.6h-4.9c-2.9,0-5.5-1.2-7.4-3.1l35.9,35.9c1.2-0.3,2.3-0.6,3.5-0.9
				c1.3-0.4,2.5-0.8,3.7-1.2c25.6-8.9,44.3-32.6,45.8-60.9L306.4,173.4z"/>
		</g>
	</g>
	<g>
		<polygon fill="#6FBEC4" points="248.4,231.5 248.4,231.5 248.4,231.5 		"/>
	</g>
	<g>
		<polygon fill="#6FBEC4" points="248.4,231.5 248.4,231.5 248.4,231.5 		"/>
	</g>
</g>
<g id="Succeed">
	<g>
		<g>
			<g>
				<circle fill="#595671" cx="598.4" cy="200.6" r="68.4"/>
			</g>
		</g>
		<g>
			<g>
				<path fill="#D8D8D9" d="M600.9,186.3c0.2-0.6,0.4-1.6,0.6-2.4l1.1-4.3l0.9-3.5l0,0l0.4-1.6c0.7-2.7-0.8-5.5-3.4-6.4
					c-0.1,0-0.2-0.1-0.3-0.1c-0.1,0-0.2,0-0.3-0.1c-2.7-0.6-5.4,1.1-6.1,3.8l-0.4,1.6c0,0,0,0,0,0l-0.9,3.5l-1.4,5.1l-0.8,3.1
					c-0.2,0.9-3.8,11.5-12,11.5h-2h-1.6v1.6v33.6v1.6h1.6h2h1.6h1.6h11.5h1h1.6h7.9v-10.5v-10.5v-10.5v-10.5h-4.1l0.4-1.5
					L600.9,186.3z"/>
			</g>
			<g>
				<g>
					<path fill="#C3C3C6" d="M614.2,201.8h2.6c2.9,0,5.3-2.4,5.3-5.3h-23.7c0,2.9,2.4,5.3,5.3,5.3h2.6H614.2z"/>
				</g>
				<g>
					<path fill="#F0EEEE" d="M616.8,191.3h-2.6h-7.9h-2.6c-2.9,0-5.3,2.4-5.3,5.3h23.7C622.1,193.7,619.7,191.3,616.8,191.3z"/>
				</g>
				<g>
					<path fill="#F0EEEE" d="M616.8,201.8h-2.6h-7.9h-2.6c-2.9,0-5.3,2.4-5.3,5.3h23.7C622.1,204.2,619.7,201.8,616.8,201.8z"/>
				</g>
				<g>
					<path fill="#C3C3C6" d="M622.1,207.1h-23.7c0,2.9,2.4,5.3,5.3,5.3h2.6h7.9h2.6C619.7,212.4,622.1,210,622.1,207.1z"/>
				</g>
				<g>
					<path fill="#C3C3C6" d="M603.6,222.9h2.6h7.9h2.6c2.9,0,5.3-2.4,5.3-5.3h-23.7C598.4,220.5,600.7,222.9,603.6,222.9z"/>
				</g>
				<g>
					<path fill="#F0EEEE" d="M606.3,212.4h-2.6c-2.9,0-5.3,2.4-5.3,5.3h23.7c0-2.9-2.4-5.3-5.3-5.3h-2.6H606.3z"/>
				</g>
				<g>
					<path fill="#C3C3C6" d="M603.6,233.4h10.5c2.9,0,5.3-2.4,5.3-5.3h-21.1C598.4,231.1,600.7,233.4,603.6,233.4z"/>
				</g>
				<g>
					<path fill="#F0EEEE" d="M603.6,222.9c-2.9,0-5.3,2.4-5.3,5.3h21.1c0-2.9-2.4-5.3-5.3-5.3h-7.9H603.6z"/>
				</g>
			</g>
		</g>
	</g>
	<g>
		<g>
			<path fill="#4C4969" d="M623.3,190.1l-2.6-2.6L603,169.8l0,0c0,0,0,0,0,0c1,1.3,1.5,3,1,4.7l-0.4,1.5l0,0.1l-0.9,3.5l-1.1,4.3
				c-0.2,0.8-0.5,1.8-0.6,2.4l-0.9,3.5l-0.4,1.5h4.1h2.6h7.9h2.6c1.5,0,2.8,0.6,3.7,1.5c0,0,0,0,0,0l0,0c1,1,1.5,2.3,1.5,3.7
				c0,2.9-2.4,5.3-5.3,5.3c2.9,0,5.3,2.4,5.3,5.3c0,2.9-2.4,5.3-5.3,5.3c2.9,0,5.3,2.4,5.3,5.3c0,2.9-2.4,5.3-5.3,5.3h-2.6
				c2.9,0,5.3,2.4,5.3,5.3c0,2.9-2.4,5.3-5.3,5.3h-10.5h-7.9h-1.6h-1h-11.5H580h-1.6h-2h-1.6l2.6,2.6l32.1,32.1
				c21.8-3.6,40.2-17.4,49.9-36.5c0.6-1.2,1.2-2.5,1.8-3.8L623.3,190.1z"/>
		</g>
	</g>
</g>
</svg>
